<?xml version="1.0" ?>
<!-- Uploaded to: SVG Repo, www.svgrepo.com, Generator: SVG Repo Mixer Tools -->
<svg width="800px" height="800px" viewBox="0 0 24 24" xmlns="http://www.w3.org/2000/svg">
<defs>
<style>.cls-1{fill:#0e7cc9;}.cls-2{fill:#47a6e3;}.cls-3{fill:#6c2e7c;}</style>
</defs>
<g id="Icons">
<circle class="cls-1" cx="12" cy="20" r="2"/>
<path class="cls-2" d="M17.1,15.59a1.984,1.984,0,0,1-1.133-.354,7.088,7.088,0,0,0-7.93,0,2,2,0,1,1-2.27-3.293,10.975,10.975,0,0,1,12.47,0A2,2,0,0,1,17.1,15.59Z"/>
<path class="cls-2" d="M21,8.581a1.992,1.992,0,0,1-1.058-.3,14.988,14.988,0,0,0-15.88,0A2,2,0,0,1,1.94,4.884a18.988,18.988,0,0,1,20.12,0A2,2,0,0,1,21,8.581Z"/>
</g>
<g data-name="Layer 4" id="Layer_4">
<path class="cls-3" d="M12,17a3,3,0,1,0,3,3A3,3,0,0,0,12,17Zm0,4a1,1,0,1,1,1-1A1,1,0,0,1,12,21Z"/>
<path class="cls-3" d="M18.8,11.12a11.975,11.975,0,0,0-13.606,0,3,3,0,0,0,1.16,5.421,3.025,3.025,0,0,0,.55.05,2.976,2.976,0,0,0,1.7-.531,6.1,6.1,0,0,1,6.794,0,3.079,3.079,0,0,0,4.173-.767A3,3,0,0,0,18.8,11.12Zm-.88,3.037a1.023,1.023,0,0,1-1.391.256,8.133,8.133,0,0,0-9.066,0,.983.983,0,0,1-.746.16,1,1,0,0,1-.8-1.165.982.982,0,0,1,.416-.642,9.973,9.973,0,0,1,11.335,0,1,1,0,0,1,.255,1.39Z"/>
<path class="cls-3" d="M22.589,4.036a19.984,19.984,0,0,0-21.178,0A3,3,0,1,0,4.589,9.125a13.984,13.984,0,0,1,14.821,0A3,3,0,0,0,21,9.581h0a3,3,0,0,0,1.59-5.545Zm-.741,3.073a1.018,1.018,0,0,1-1.378.319,15.987,15.987,0,0,0-16.941,0A1,1,0,0,1,2.152,7.11,1,1,0,0,1,2.47,5.732a17.988,17.988,0,0,1,19.06,0A1,1,0,0,1,21.848,7.109Z"/>
</g>
</svg>